<svg preserveAspectRatio="none" width="100%" height="100%" overflow="visible" style="display: block;" viewBox="0 0 10.4 14.4" fill="none" xmlns="http://www.w3.org/2000/svg">
<g id="Group 1410117748">
<path id="Vector" d="M6.7 0.100391V0.101367C6.77866 0.100988 6.85665 0.114632 6.92949 0.144336C7.0026 0.174195 7.06972 0.21861 7.12578 0.274219L10.1258 3.27422L10.2 3.36602C10.2217 3.39884 10.2407 3.43389 10.2557 3.47051C10.2854 3.54334 10.3 3.62134 10.2996 3.7V13.2C10.2996 13.4917 10.1836 13.7711 9.97734 13.9773C9.77106 14.1836 9.49174 14.2996 9.2 14.2996H1.2C0.908262 14.2996 0.628946 14.1836 0.422656 13.9773C0.216366 13.7711 0.100391 13.4917 0.100391 13.2V1.2C0.100393 0.908265 0.216368 0.628944 0.422656 0.422656C0.628946 0.216369 0.908264 0.100391 1.2 0.100391H6.7ZM1.29961 13.1004H9.10039V3.94609L6.45391 1.29961H1.29961V13.1004Z" fill="var(--fill-0, #2585FD)" stroke="var(--stroke-0, #2585FD)" stroke-width="0.2"/>
<path id="Vector_2" d="M7.20586 0.491992C7.247 0.512883 7.27108 0.548506 7.28398 0.584766C7.29611 0.618853 7.2996 0.657481 7.29961 0.69707V3.09746H9.7C9.73957 3.09746 9.77822 3.10099 9.8123 3.11309C9.84851 3.12597 9.88418 3.15018 9.90508 3.19121C9.92464 3.22975 9.92398 3.26911 9.91973 3.29766C9.91544 3.32641 9.90565 3.35501 9.89629 3.37969C9.88689 3.40445 9.8757 3.43169 9.86504 3.45684C9.85388 3.48317 9.84256 3.50981 9.83281 3.53691C9.81325 3.59134 9.79963 3.64461 9.79961 3.69707C9.79961 3.74949 9.81328 3.80284 9.83281 3.85723C9.84256 3.88433 9.85387 3.91096 9.86504 3.9373C9.87569 3.96243 9.88687 3.98968 9.89629 4.01445C9.90562 4.03904 9.91542 4.06783 9.91973 4.09648C9.92398 4.12502 9.92462 4.16441 9.90508 4.20293C9.88419 4.24408 9.84857 4.26815 9.8123 4.28105C9.7782 4.29317 9.73961 4.29766 9.7 4.29766H7.2C6.90846 4.29766 6.62891 4.18142 6.42266 3.97539C6.21637 3.7691 6.10039 3.48881 6.10039 3.19707V0.69707C6.1004 0.65748 6.10389 0.618853 6.11602 0.584766C6.12892 0.548506 6.153 0.512883 6.19414 0.491992C6.23268 0.472427 6.27204 0.473089 6.30059 0.477344C6.32929 0.481638 6.35798 0.491436 6.38262 0.500781C6.4075 0.510229 6.43453 0.522312 6.45977 0.533008C6.48611 0.544172 6.51274 0.554514 6.53984 0.564258C6.59429 0.583825 6.64752 0.597461 6.7 0.597461C6.75248 0.597461 6.80571 0.583826 6.86016 0.564258C6.88726 0.554514 6.91389 0.544172 6.94023 0.533008C6.96547 0.522312 6.99251 0.510229 7.01738 0.500781C7.04202 0.491436 7.07071 0.481638 7.09941 0.477344C7.12796 0.473089 7.16732 0.472427 7.20586 0.491992Z" fill="var(--fill-0, #2585FD)" stroke="var(--stroke-0, #2585FD)" stroke-width="0.2"/>
<path id="Vector_3" d="M7.69805 5.59648C7.85768 5.59648 8.01093 5.65942 8.12383 5.77227C8.23671 5.88515 8.30056 6.03841 8.30059 6.19805C8.30059 6.35772 8.23673 6.51092 8.12383 6.62383L5.62383 9.12383C5.56776 9.17944 5.50064 9.22385 5.42754 9.25371C5.35469 9.28341 5.27672 9.29707 5.19805 9.29668C5.11938 9.29705 5.0414 9.28343 4.96855 9.25371C4.89545 9.22385 4.82833 9.17944 4.77227 9.12383L3.77227 8.12383C3.65942 8.01093 3.59648 7.85768 3.59648 7.69805C3.59651 7.53841 3.65938 7.38515 3.77227 7.27227C3.88515 7.15938 4.03841 7.09651 4.19805 7.09648C4.35768 7.09648 4.51093 7.15942 4.62383 7.27227L5.19805 7.85137L7.27227 5.77227C7.38515 5.65938 7.53841 5.59651 7.69805 5.59648Z" fill="var(--fill-0, #2585FD)" stroke="var(--stroke-0, #2585FD)" stroke-width="0.2"/>
<path id="Vector_4" d="M4.79668 4.62188C5.27958 4.56678 5.76891 4.61745 6.23027 4.77031L6.33867 4.81914C6.44073 4.87792 6.52384 4.96598 6.57695 5.07305C6.64777 5.21587 6.65909 5.38095 6.6082 5.53203C6.55727 5.68303 6.44823 5.80789 6.30547 5.87871C6.16272 5.94938 5.99745 5.96081 5.84648 5.90996C5.63736 5.83971 5.41864 5.80205 5.19805 5.79961C4.79176 5.80002 4.39392 5.91634 4.05059 6.13359C3.70714 6.35097 3.43189 6.66092 3.25762 7.02813C3.08339 7.39529 3.01745 7.80434 3.06621 8.20781C3.11504 8.61141 3.27712 8.99328 3.53398 9.3084C3.79084 9.62344 4.13197 9.85892 4.51738 9.98809C4.9028 10.1172 5.31691 10.1346 5.71172 10.0379C6.10648 9.94118 6.46574 9.73477 6.74785 9.44219C7.03002 9.14952 7.22326 8.78271 7.30547 8.38457C7.32122 8.3063 7.35284 8.23217 7.39727 8.16582C7.44177 8.09937 7.49872 8.04225 7.56523 7.99785C7.63175 7.95351 7.70656 7.9226 7.78496 7.90703C7.86351 7.89149 7.94472 7.89133 8.02324 7.90703C8.10169 7.92272 8.17648 7.95337 8.24297 7.99785C8.30952 8.04242 8.36651 8.10016 8.41094 8.1668C8.45534 8.23341 8.48621 8.30799 8.50176 8.38652C8.50954 8.42584 8.51353 8.46578 8.51348 8.50566L8.50176 8.6248C8.37119 9.26742 8.05423 9.85734 7.59063 10.3211C7.12682 10.7849 6.53615 11.1026 5.89336 11.2332C5.66479 11.279 5.43213 11.2999 5.19902 11.2986V11.2996C4.71313 11.3029 4.23217 11.2009 3.78984 10.9998C3.34743 10.7986 2.95449 10.503 2.6375 10.1346C2.32053 9.76617 2.0868 9.33348 1.95391 8.86602C1.82103 8.39855 1.79219 7.90758 1.86797 7.42754C1.94377 6.94752 2.12294 6.48952 2.39336 6.08574C2.66378 5.68203 3.01843 5.34148 3.4334 5.08867C3.84843 4.83584 4.31384 4.67699 4.79668 4.62188Z" fill="var(--fill-0, #2585FD)" stroke="var(--stroke-0, #2585FD)" stroke-width="0.2"/>
</g>
</svg>
