<svg preserveAspectRatio="none" width="100%" height="100%" overflow="visible" style="display: block;" viewBox="0 0 10.508 8.9804" fill="none" xmlns="http://www.w3.org/2000/svg">
<g id="Group 35536">
<path id="Path 198210" d="M8.3265 8.69126H2.169C1.66916 8.69048 1.19001 8.49148 0.836573 8.13786C0.483132 7.78425 0.284226 7.30487 0.283447 6.80479V2.17212C0.284226 1.67203 0.483132 1.19265 0.836573 0.83904C1.19001 0.485427 1.66916 0.286424 2.169 0.285645H8.3265C8.82634 0.286424 9.30548 0.485427 9.65893 0.83904C10.0124 1.19265 10.2113 1.67203 10.2121 2.17212V6.80479C10.2113 7.30487 10.0124 7.78425 9.65893 8.13786C9.30548 8.49148 8.82634 8.69048 8.3265 8.69126ZM2.169 1.81349C2.07393 1.81349 1.98276 1.85128 1.91553 1.91853C1.84831 1.98579 1.81055 2.07701 1.81055 2.17212V6.80479C1.81055 6.8999 1.84831 6.99112 1.91553 7.05837C1.98276 7.12563 2.07393 7.16341 2.169 7.16341H8.3265C8.42157 7.16341 8.51274 7.12563 8.57996 7.05837C8.64719 6.99112 8.68495 6.8999 8.68495 6.80479V2.17212C8.68495 2.07701 8.64719 1.98579 8.57996 1.91853C8.51274 1.85128 8.42157 1.81349 8.3265 1.81349H2.169Z" fill="var(--fill-0, #EAD8FF)"/>
<path id="Path 198210 - Outline" d="M8.3308 8.9804H2.17231C1.59625 8.97962 1.04402 8.75026 0.63677 8.34263C0.229523 7.935 0.00051962 7.38239 0 6.80605V2.17338C0.000779465 1.5972 0.229898 1.04485 0.637116 0.63743C1.04433 0.230012 1.59642 0.000781845 2.17231 1.99903e-06H8.32981C8.61547 -0.00038535 8.89841 0.0555228 9.16247 0.164536C9.42654 0.273548 9.66655 0.433529 9.86882 0.635346C10.0711 0.837162 10.2316 1.07686 10.3413 1.34076C10.451 1.60465 10.5076 1.88758 10.508 2.17338V6.80605C10.5078 7.09184 10.4512 7.37479 10.3417 7.63874C10.2321 7.90268 10.0717 8.14245 9.86951 8.34436C9.66734 8.54627 9.42739 8.70636 9.16338 8.81549C8.89937 8.92462 8.61645 8.98066 8.3308 8.9804ZM2.17329 0.574786C1.74943 0.575306 1.34307 0.743999 1.04335 1.04386C0.743634 1.34373 0.575024 1.75029 0.574504 2.17436V6.80703C0.575024 7.2311 0.743634 7.63766 1.04335 7.93752C1.34307 8.23739 1.74943 8.40608 2.17329 8.4066H8.3308C8.75466 8.40608 9.16102 8.23739 9.46074 7.93752C9.76046 7.63766 9.92907 7.2311 9.92959 6.80703V2.17338C9.92907 1.7493 9.76046 1.34275 9.46074 1.04288C9.16102 0.743017 8.75466 0.574324 8.3308 0.573804L2.17329 0.574786ZM8.3308 7.45256H2.17231C2.00127 7.4523 1.83731 7.3842 1.71636 7.2632C1.59542 7.14219 1.52736 6.97815 1.5271 6.80703V2.17338C1.52736 2.00225 1.59542 1.83821 1.71636 1.71721C1.83731 1.5962 2.00127 1.52811 2.17231 1.52785H8.32981C8.50086 1.52811 8.66482 1.5962 8.78576 1.71721C8.90671 1.83821 8.97477 2.00225 8.97503 2.17338V6.80605C8.97477 6.977 8.90684 7.14089 8.78611 7.26187C8.66538 7.38285 8.50167 7.45204 8.3308 7.45256ZM2.17231 2.10263C2.1533 2.10263 2.13506 2.11019 2.12162 2.12364C2.10817 2.13709 2.10062 2.15534 2.10062 2.17436V6.80703C2.10062 6.82605 2.10817 6.84429 2.12162 6.85775C2.13506 6.8712 2.1533 6.87875 2.17231 6.87875H8.32981C8.33923 6.87875 8.34855 6.8769 8.35725 6.87329C8.36595 6.86969 8.37385 6.86441 8.38051 6.85775C8.38716 6.85108 8.39244 6.84318 8.39605 6.83448C8.39965 6.82577 8.4015 6.81645 8.4015 6.80703V2.17338C8.4015 2.16396 8.39965 2.15463 8.39605 2.14593C8.39244 2.13723 8.38716 2.12932 8.38051 2.12266C8.37385 2.116 8.36595 2.11072 8.35725 2.10711C8.34855 2.10351 8.33923 2.10165 8.32981 2.10165L2.17231 2.10263Z" fill="var(--fill-0, #EAD8FF)"/>
</g>
</svg>
