<svg preserveAspectRatio="none" width="100%" height="100%" overflow="visible" style="display: block;" viewBox="0 0 10.508 8.9804" fill="none" xmlns="http://www.w3.org/2000/svg">
<g id="Group 35534">
<path id="Path 198208" d="M8.3243 8.68907H2.1668C1.66696 8.68829 1.18782 8.48928 0.834375 8.13567C0.480934 7.78205 0.282029 7.30268 0.28125 6.80259V2.16992C0.282029 1.66984 0.480934 1.19046 0.834375 0.836844C1.18782 0.48323 1.66696 0.284227 2.1668 0.283447H8.3243C8.82414 0.284227 9.30329 0.48323 9.65673 0.836844C10.0102 1.19046 10.2091 1.66984 10.2099 2.16992V6.80259C10.2091 7.30268 10.0102 7.78205 9.65673 8.13567C9.30329 8.48928 8.82414 8.68829 8.3243 8.68907ZM2.1668 1.81129C2.07173 1.81129 1.98056 1.84908 1.91334 1.91633C1.84611 1.98359 1.80835 2.07481 1.80835 2.16992V6.80259C1.80835 6.8977 1.84611 6.98892 1.91334 7.05618C1.98056 7.12343 2.07173 7.16122 2.1668 7.16122H8.3243C8.41937 7.16122 8.51054 7.12343 8.57777 7.05618C8.64499 6.98892 8.68275 6.8977 8.68275 6.80259V2.16992C8.68275 2.07481 8.64499 1.98359 8.57777 1.91633C8.51054 1.84908 8.41937 1.81129 8.3243 1.81129H2.1668Z" fill="var(--fill-0, #EAD8FF)"/>
<path id="Path 198208 - Outline" d="M8.3308 8.9804H2.17329C1.59706 8.97988 1.04457 8.75063 0.637116 8.34297C0.229657 7.93532 0.000520067 7.38256 0 6.80605V2.17338C0.000779465 1.5972 0.229897 1.04485 0.637116 0.63743C1.04433 0.230012 1.59642 0.000781845 2.17231 1.99901e-06H8.32981C8.61547 -0.00038535 8.89841 0.0555234 9.16247 0.164536C9.42654 0.273549 9.66655 0.433531 9.86882 0.635347C10.0711 0.837164 10.2316 1.07686 10.3413 1.34076C10.451 1.60465 10.5076 1.88758 10.508 2.17338V6.80605C10.5078 7.09184 10.4512 7.37479 10.3417 7.63874C10.2321 7.90268 10.0717 8.14245 9.86951 8.34436C9.66734 8.54627 9.42739 8.70636 9.16338 8.81549C8.89937 8.92463 8.61645 8.98066 8.3308 8.9804ZM2.17329 0.574787C1.74943 0.575307 1.34307 0.744 1.04335 1.04387C0.743633 1.34373 0.575023 1.75029 0.574503 2.17436V6.80605C0.575023 7.23012 0.743633 7.63667 1.04335 7.93654C1.34307 8.23641 1.74943 8.4051 2.17329 8.40562H8.3308C8.75466 8.4051 9.16102 8.23641 9.46074 7.93654C9.76046 7.63667 9.92907 7.23012 9.92959 6.80605V2.17338C9.92907 1.7493 9.76046 1.34275 9.46074 1.04288C9.16102 0.743017 8.75466 0.574324 8.3308 0.573804L2.17329 0.574787ZM8.3308 7.45256H2.17329C2.00225 7.4523 1.83829 7.3842 1.71735 7.2632C1.5964 7.14219 1.52834 6.97815 1.52808 6.80703V2.17338C1.52834 2.00225 1.5964 1.83821 1.71735 1.71721C1.83829 1.5962 2.00225 1.52811 2.17329 1.52785H8.3308C8.50184 1.52811 8.6658 1.5962 8.78674 1.71721C8.90769 1.83821 8.97575 2.00225 8.97601 2.17338V6.80605C8.97575 6.97717 8.90769 7.14121 8.78674 7.26222C8.6658 7.38322 8.50184 7.4523 8.3308 7.45256ZM2.17231 2.10263C2.1533 2.10263 2.13506 2.11019 2.12162 2.12364C2.10817 2.13709 2.10062 2.15534 2.10062 2.17436V6.80605C2.10062 6.82507 2.10817 6.84331 2.12162 6.85676C2.13506 6.87021 2.1533 6.87777 2.17231 6.87777H8.32981C8.34883 6.87777 8.36706 6.87021 8.38051 6.85676C8.39395 6.84331 8.4015 6.82507 8.4015 6.80605V2.17338C8.4015 2.15435 8.39395 2.13611 8.38051 2.12266C8.36706 2.10921 8.34883 2.10165 8.32981 2.10165L2.17231 2.10263Z" fill="var(--fill-0, #EAD8FF)"/>
</g>
</svg>
