<svg preserveAspectRatio="none" width="100%" height="100%" overflow="visible" style="display: block;" viewBox="0 0 10.508 12.0371" fill="none" xmlns="http://www.w3.org/2000/svg">
<g id="Group 35535">
<path id="Path 198209" d="M8.3265 11.7457H2.169C1.66916 11.745 1.19001 11.546 0.836573 11.1923C0.483132 10.8387 0.284226 10.3594 0.283447 9.85927V2.16992C0.284226 1.66984 0.483132 1.19046 0.836573 0.836844C1.19001 0.48323 1.66916 0.284227 2.169 0.283447H8.3265C8.82634 0.284227 9.30548 0.48323 9.65893 0.836844C10.0124 1.19046 10.2113 1.66984 10.2121 2.16992V9.85927C10.2113 10.3594 10.0124 10.8387 9.65893 11.1923C9.30548 11.546 8.82634 11.745 8.3265 11.7457ZM2.169 1.81129C2.07393 1.81129 1.98276 1.84908 1.91553 1.91633C1.84831 1.98359 1.81055 2.07481 1.81055 2.16992V9.85927C1.81055 9.95438 1.84831 10.0456 1.91553 10.1129C1.98276 10.1801 2.07393 10.2179 2.169 10.2179H8.3265C8.42157 10.2179 8.51274 10.1801 8.57996 10.1129C8.64719 10.0456 8.68495 9.95438 8.68495 9.85927V2.16992C8.68495 2.07481 8.64719 1.98359 8.57996 1.91633C8.51274 1.84908 8.42157 1.81129 8.3265 1.81129H2.169Z" fill="var(--fill-0, #EAD8FF)"/>
<path id="Path 198209 - Outline" d="M8.3308 12.0371H2.17231C1.59625 12.0363 1.04402 11.8069 0.63677 11.3993C0.229523 10.9917 0.00051962 10.4391 0 9.86272V2.17338C0.000779465 1.5972 0.229898 1.04485 0.637116 0.63743C1.04433 0.230012 1.59642 0.000781845 2.17231 1.99901e-06H8.32981C8.61547 -0.00038535 8.89841 0.0555234 9.16247 0.164536C9.42654 0.273549 9.66655 0.433531 9.86882 0.635347C10.0711 0.837164 10.2316 1.07686 10.3413 1.34076C10.451 1.60465 10.5076 1.88758 10.508 2.17338V9.86272C10.5078 10.1485 10.4512 10.4315 10.3417 10.6954C10.2321 10.9594 10.0717 11.1991 9.86951 11.401C9.66734 11.6029 9.42739 11.763 9.16338 11.8722C8.89937 11.9813 8.61645 12.0373 8.3308 12.0371ZM2.17231 0.573804C1.74845 0.574324 1.34209 0.743017 1.04237 1.04288C0.742652 1.34275 0.574041 1.7493 0.573522 2.17338V9.86272C0.574041 10.2868 0.742652 10.6934 1.04237 10.9932C1.34209 11.2931 1.74845 11.4618 2.17231 11.4623H8.32981C8.75368 11.4618 9.16004 11.2931 9.45976 10.9932C9.75947 10.6934 9.92808 10.2868 9.9286 9.86272V2.17338C9.92808 1.7493 9.75947 1.34275 9.45976 1.04288C9.16004 0.743017 8.75368 0.574324 8.32981 0.573804H2.17231ZM8.3308 10.5132H2.17231C2.00127 10.5129 1.83731 10.4448 1.71636 10.3238C1.59542 10.2028 1.52736 10.0388 1.5271 9.86764V2.17338C1.52736 2.00225 1.59542 1.83821 1.71636 1.71721C1.83731 1.5962 2.00127 1.52811 2.17231 1.52785H8.32981C8.50086 1.52811 8.66482 1.5962 8.78576 1.71721C8.90671 1.83821 8.97477 2.00225 8.97503 2.17338V9.86272C8.97554 9.94779 8.95928 10.0321 8.92716 10.1109C8.89504 10.1896 8.8477 10.2613 8.78785 10.3217C8.728 10.3821 8.65682 10.4302 8.57839 10.463C8.49996 10.4959 8.41582 10.5129 8.3308 10.5132ZM2.17231 2.10263C2.1533 2.10263 2.13506 2.11019 2.12162 2.12364C2.10817 2.13709 2.10062 2.15534 2.10062 2.17436V9.86371C2.10062 9.88273 2.10817 9.90097 2.12162 9.91442C2.13506 9.92787 2.1533 9.93543 2.17231 9.93543H8.32981C8.33923 9.93543 8.34855 9.93358 8.35725 9.92997C8.36595 9.92637 8.37385 9.92108 8.38051 9.91442C8.38716 9.90776 8.39244 9.89986 8.39605 9.89115C8.39965 9.88245 8.4015 9.87313 8.4015 9.86371V2.17338C8.4015 2.16396 8.39965 2.15463 8.39605 2.14593C8.39244 2.13723 8.38716 2.12932 8.38051 2.12266C8.37385 2.116 8.36595 2.11072 8.35725 2.10711C8.34855 2.10351 8.33923 2.10165 8.32981 2.10165L2.17231 2.10263Z" fill="var(--fill-0, #EAD8FF)"/>
</g>
</svg>
