<svg preserveAspectRatio="none" width="100%" height="100%" overflow="visible" style="display: block;" viewBox="0 0 36 36" fill="none" xmlns="http://www.w3.org/2000/svg">
<g id="Group 35725">
<g id="Rectangle 21057">
</g>
<path id="Vector" d="M23.8173 28H12.1816C10.9385 28 9.76971 27.5377 8.89058 26.6982C8.01148 25.8588 7.52734 24.7427 7.52734 23.5555V22.4444C7.52734 21.8307 8.04827 21.3332 8.69092 21.3332C9.33358 21.3332 9.8545 21.8307 9.8545 22.4444V23.5555C9.8545 24.1491 10.0966 24.7071 10.5361 25.1268C10.9756 25.5466 11.56 25.7778 12.1816 25.7778H23.8173C24.4389 25.7778 25.0233 25.5466 25.4628 25.1268C25.9024 24.7071 26.1445 24.149 26.1445 23.5555V22.4444C26.1445 21.8307 26.6654 21.3332 27.308 21.3332C27.9506 21.3332 28.4716 21.8307 28.4716 22.4444V23.5555C28.4716 24.7426 27.9875 25.8587 27.1084 26.6982C26.2292 27.5377 25.0604 28 23.8173 28ZM17.9995 23.5555C17.8385 23.5555 17.6853 23.5243 17.5459 23.4679C17.4158 23.4154 17.2936 23.3392 17.1866 23.2395C17.1867 23.2395 17.1866 23.2394 17.1866 23.2395C17.1859 23.2388 17.185 23.238 17.1842 23.2372C17.1844 23.2374 17.184 23.2371 17.1842 23.2372C17.1836 23.2367 17.1824 23.2355 17.1817 23.2349C17.1813 23.2345 17.181 23.2342 17.1806 23.2338C17.1802 23.2334 17.1796 23.2329 17.1793 23.2326C17.1785 23.2318 17.1776 23.2309 17.1768 23.2302L12.5224 18.7856C12.0681 18.3517 12.0681 17.6482 12.5224 17.2143C12.9768 16.7804 13.7136 16.7803 14.168 17.2143L16.8359 19.7619V9.11112C16.8359 8.49744 17.3568 8 17.9995 8C18.6421 8 19.1631 8.49744 19.1631 9.11112V19.7619L21.831 17.2143C22.2853 16.7804 23.0222 16.7804 23.4765 17.2143C23.9309 17.6482 23.9309 18.3517 23.4765 18.7856L18.8222 23.2301C18.8214 23.2309 18.8205 23.2317 18.8197 23.2325C18.8193 23.2329 18.8188 23.2334 18.8184 23.2337C18.818 23.2341 18.8176 23.2344 18.8172 23.2348C18.8167 23.2354 18.816 23.236 18.8154 23.2365C18.8156 23.2364 18.8152 23.2367 18.8154 23.2365C18.8147 23.2373 18.8132 23.2386 18.8125 23.2393C18.8125 23.2393 18.8124 23.2393 18.8125 23.2393C18.7997 23.2512 18.7866 23.2629 18.7734 23.2741C18.6759 23.3571 18.5674 23.4218 18.4527 23.468C18.4523 23.4682 18.4519 23.4683 18.4515 23.4685C18.4511 23.4686 18.4507 23.4689 18.4503 23.469C18.3116 23.5248 18.1593 23.5555 17.9995 23.5555Z" fill="var(--fill-0, #684B8A)"/>
</g>
</svg>
