<svg preserveAspectRatio="none" width="100%" height="100%" overflow="visible" style="display: block;" viewBox="0 0 10.508 12.0371" fill="none" xmlns="http://www.w3.org/2000/svg">
<g id="Group 35533">
<path id="Path 198207" d="M8.3243 11.7457H2.1668C1.66696 11.745 1.18782 11.546 0.834375 11.1923C0.480934 10.8387 0.282029 10.3594 0.28125 9.85927V2.16992C0.282029 1.66984 0.480934 1.19046 0.834375 0.836844C1.18782 0.48323 1.66696 0.284227 2.1668 0.283447H8.3243C8.82414 0.284227 9.30329 0.48323 9.65673 0.836844C10.0102 1.19046 10.2091 1.66984 10.2099 2.16992V9.85927C10.2091 10.3594 10.0102 10.8387 9.65673 11.1923C9.30329 11.546 8.82414 11.745 8.3243 11.7457ZM2.1668 1.81129C2.07173 1.81129 1.98056 1.84908 1.91334 1.91633C1.84611 1.98359 1.80835 2.07481 1.80835 2.16992V9.85927C1.80835 9.95438 1.84611 10.0456 1.91334 10.1129C1.98056 10.1801 2.07173 10.2179 2.1668 10.2179H8.3243C8.41937 10.2179 8.51054 10.1801 8.57777 10.1129C8.64499 10.0456 8.68275 9.95438 8.68275 9.85927V2.16992C8.68275 2.07481 8.64499 1.98359 8.57777 1.91633C8.51054 1.84908 8.41937 1.81129 8.3243 1.81129H2.1668Z" fill="var(--fill-0, #EAD8FF)"/>
<path id="Path 198207 - Outline" d="M8.3308 12.0371H2.17329C1.59706 12.0366 1.04457 11.8073 0.637116 11.3997C0.229657 10.992 0.000520067 10.4392 0 9.86272V2.17338C0.000779465 1.5972 0.229897 1.04485 0.637116 0.637431C1.04433 0.230013 1.59642 0.000781845 2.17231 1.999e-06H8.32981C8.61547 -0.00038535 8.89841 0.0555237 9.16247 0.164536C9.42654 0.273549 9.66655 0.433531 9.86882 0.635348C10.0711 0.837164 10.2316 1.07686 10.3413 1.34076C10.451 1.60465 10.5076 1.88758 10.508 2.17338V9.86272C10.5078 10.1485 10.4512 10.4315 10.3417 10.6954C10.2321 10.9594 10.0717 11.1991 9.86951 11.401C9.66734 11.6029 9.42739 11.763 9.16338 11.8722C8.89937 11.9813 8.61645 12.0373 8.3308 12.0371ZM2.17329 0.574787C1.74943 0.575307 1.34307 0.744 1.04335 1.04387C0.743633 1.34373 0.575023 1.75029 0.574503 2.17436V9.86371C0.575023 10.2878 0.743633 10.6943 1.04335 10.9942C1.34307 11.2941 1.74943 11.4628 2.17329 11.4633H8.3308C8.75466 11.4628 9.16102 11.2941 9.46074 10.9942C9.76046 10.6943 9.92907 10.2878 9.92959 9.86371V2.17338C9.92907 1.7493 9.76046 1.34275 9.46074 1.04288C9.16102 0.743017 8.75466 0.574325 8.3308 0.573805L2.17329 0.574787ZM8.3308 10.5132H2.17329C2.00225 10.5129 1.83829 10.4448 1.71735 10.3238C1.5964 10.2028 1.52834 10.0388 1.52808 9.86764V2.17338C1.52834 2.00225 1.5964 1.83821 1.71735 1.71721C1.83829 1.5962 2.00225 1.52811 2.17329 1.52785H8.3308C8.50184 1.52811 8.6658 1.5962 8.78674 1.71721C8.90769 1.83821 8.97575 2.00225 8.97601 2.17338V9.86272C8.97652 9.94787 8.96023 10.0323 8.92804 10.1111C8.89586 10.1899 8.84844 10.2616 8.78848 10.3221C8.72853 10.3825 8.65723 10.4305 8.57869 10.4633C8.50015 10.4961 8.4159 10.513 8.3308 10.5132ZM2.17329 2.10755C2.15428 2.10755 2.13605 2.1151 2.1226 2.12855C2.10916 2.14201 2.1016 2.16025 2.1016 2.17927V9.86862C2.1016 9.88764 2.10916 9.90588 2.1226 9.91934C2.13605 9.93279 2.15428 9.94034 2.17329 9.94034H8.3308C8.34981 9.94034 8.36804 9.93279 8.38149 9.91934C8.39493 9.90588 8.40249 9.88764 8.40249 9.86862V2.17338C8.40249 2.15436 8.39493 2.13611 8.38149 2.12266C8.36804 2.10921 8.34981 2.10165 8.3308 2.10165L2.17329 2.10755Z" fill="var(--fill-0, #EAD8FF)"/>
</g>
</svg>
