<svg preserveAspectRatio="none" width="100%" height="100%" overflow="visible" style="display: block;" viewBox="0 0 18.72 20.16" fill="none" xmlns="http://www.w3.org/2000/svg">
<g id="log-out-Bold">
<path id="log-out-Bold_2" d="M10.4011 19.1524C10.4011 19.4193 10.2918 19.6752 10.0974 19.8641C9.90289 20.053 9.63904 20.1594 9.36371 20.16H5.20052C3.82176 20.1584 2.49993 19.6269 1.525 18.682C0.550062 17.7372 0.00162686 16.4561 0 15.1199V5.04047C0.00162686 3.70424 0.550062 2.42318 1.525 1.47832C2.49993 0.533463 3.82176 0.00194905 5.20052 0.000372373H9.36371C9.50267 -0.00328849 9.64097 0.0200747 9.77046 0.0690824C9.89994 0.11809 10.018 0.191748 10.1176 0.285706C10.2172 0.379665 10.2964 0.492017 10.3505 0.616129C10.4045 0.740242 10.4324 0.873597 10.4324 1.00832C10.4324 1.14304 10.4045 1.27639 10.3505 1.4005C10.2964 1.52462 10.2172 1.63697 10.1176 1.73093C10.018 1.82489 9.89994 1.89854 9.77046 1.94755C9.64097 1.99656 9.50267 2.01992 9.36371 2.01626H5.20052C4.37317 2.01705 3.57994 2.33592 2.99492 2.9029C2.40989 3.46988 2.08087 4.23864 2.08006 5.04047V15.1199C2.08087 15.9217 2.40989 16.6905 2.99492 17.2575C3.57994 17.8245 4.37317 18.1433 5.20052 18.1441H9.36371C9.63917 18.1447 9.90314 18.2512 10.0976 18.4403C10.2921 18.6293 10.4013 18.8855 10.4011 19.1524ZM18.6414 10.4656C18.7197 10.2813 18.7401 10.0788 18.7 9.88339C18.6599 9.68798 18.5612 9.50838 18.4162 9.36714L14.2569 5.33611C14.0618 5.1471 13.7973 5.04091 13.5215 5.04091C13.2457 5.04091 12.9812 5.1471 12.7862 5.33611C12.5911 5.52512 12.4816 5.78148 12.4816 6.04878C12.4816 6.31609 12.5911 6.57244 12.7862 6.76145L15.1682 9.07001H7.28058C7.14162 9.06635 7.00332 9.08971 6.87383 9.13872C6.74435 9.18773 6.62631 9.26138 6.52669 9.35534C6.42707 9.4493 6.34789 9.56165 6.29382 9.68577C6.23976 9.80988 6.2119 9.94323 6.2119 10.078C6.2119 10.2127 6.23976 10.346 6.29382 10.4701C6.34789 10.5942 6.42707 10.7066 6.52669 10.8006C6.62631 10.8945 6.74435 10.9682 6.87383 11.0172C7.00332 11.0662 7.14162 11.0896 7.28058 11.0859H15.1705L12.7885 13.3945C12.6919 13.488 12.6153 13.5991 12.563 13.7214C12.5108 13.8437 12.4839 13.9748 12.4839 14.1071C12.4839 14.2395 12.5108 14.3705 12.563 14.4928C12.6153 14.6151 12.6919 14.7262 12.7885 14.8198C12.885 14.9134 12.9997 14.9876 13.1259 15.0383C13.252 15.0889 13.3873 15.115 13.5238 15.115C13.6604 15.115 13.7956 15.0889 13.9218 15.0383C14.048 14.9876 14.1626 14.9134 14.2592 14.8198L18.4185 10.7888C18.5152 10.6948 18.5917 10.5831 18.6437 10.4604L18.6414 10.4656Z" fill="var(--fill-0, #FF0000)"/>
</g>
</svg>
