<svg preserveAspectRatio="none" width="100%" height="100%" overflow="visible" style="display: block;" viewBox="0 0 28 28" fill="none" xmlns="http://www.w3.org/2000/svg">
<g id="Group 1410117498">
<circle id="Ellipse 12041" cx="14" cy="14" r="14" fill="var(--fill-0, #EEC431)"/>
<g id="Group 1410117460">
<path id="Vector" d="M14.0152 19.1146C16.8322 19.1146 19.1157 16.8312 19.1157 14.0145C19.1157 11.1977 16.8322 8.91431 14.0152 8.91431C11.1983 8.91431 8.91476 11.1977 8.91476 14.0145C8.91476 16.8312 11.1983 19.1146 14.0152 19.1146Z" fill="var(--fill-0, white)"/>
<path id="Vector_2" d="M14.015 22C13.6143 22 13.2864 21.7012 13.2864 21.3005V21.2422C13.2864 20.8415 13.6143 20.5136 14.015 20.5136C14.4158 20.5136 14.7437 20.8415 14.7437 21.2422C14.7437 21.643 14.4158 22 14.015 22ZM19.2175 19.9453C19.0281 19.9453 18.8459 19.8725 18.7002 19.734L18.6055 19.6393C18.3213 19.3552 18.3213 18.8961 18.6055 18.612C18.8896 18.3278 19.3487 18.3278 19.6329 18.612L19.7276 18.7067C20.0118 18.9909 20.0118 19.4499 19.7276 19.734C19.5891 19.8725 19.407 19.9453 19.2175 19.9453ZM8.81255 19.9453C8.6231 19.9453 8.44094 19.8725 8.29522 19.734C8.01105 19.4499 8.01105 18.9909 8.29522 18.7067L8.38994 18.612C8.67411 18.3278 9.13315 18.3278 9.41732 18.612C9.70149 18.8961 9.70149 19.3552 9.41732 19.6393L9.3226 19.734C9.18416 19.8725 8.99471 19.9453 8.81255 19.9453ZM21.3014 14.7431H21.2432C20.8424 14.7431 20.5145 14.4153 20.5145 14.0146C20.5145 13.6138 20.8424 13.286 21.2432 13.286C21.6439 13.286 22.0009 13.6138 22.0009 14.0146C22.0009 14.4153 21.7022 14.7431 21.3014 14.7431ZM6.78693 14.7431H6.72864C6.32789 14.7431 6 14.4153 6 14.0146C6 13.6138 6.32789 13.286 6.72864 13.286C7.12939 13.286 7.48643 13.6138 7.48643 14.0146C7.48643 14.4153 7.18768 14.7431 6.78693 14.7431ZM19.1228 9.63569C18.9334 9.63569 18.7512 9.56283 18.6055 9.4244C18.3213 9.14025 18.3213 8.68123 18.6055 8.39708L18.7002 8.30236C18.9844 8.01821 19.4434 8.01821 19.7276 8.30236C20.0118 8.58651 20.0118 9.04553 19.7276 9.32968L19.6329 9.4244C19.4944 9.56283 19.3123 9.63569 19.1228 9.63569ZM8.90727 9.63569C8.71783 9.63569 8.53567 9.56283 8.38994 9.4244L8.29522 9.3224C8.01105 9.03824 8.01105 8.57923 8.29522 8.29508C8.57939 8.01092 9.03843 8.01092 9.3226 8.29508L9.41732 8.38979C9.70149 8.67395 9.70149 9.13296 9.41732 9.41711C9.27888 9.56283 9.08943 9.63569 8.90727 9.63569ZM14.015 7.48634C13.6143 7.48634 13.2864 7.18761 13.2864 6.78688V6.7286C13.2864 6.32787 13.6143 6 14.015 6C14.4158 6 14.7437 6.32787 14.7437 6.7286C14.7437 7.12932 14.4158 7.48634 14.015 7.48634Z" fill="var(--fill-0, white)"/>
</g>
</g>
</svg>
