<svg preserveAspectRatio="none" width="100%" height="100%" overflow="visible" style="display: block;" viewBox="0 0 14.5043 14.1426" fill="none" xmlns="http://www.w3.org/2000/svg">
<path id="Path 197735" d="M1.50796 6.45931C1.22246 6.46008 0.943013 6.54166 0.701944 6.69462C0.460874 6.84757 0.268037 7.06566 0.145742 7.32364C0.0234463 7.58162 -0.0233096 7.86895 0.0108845 8.1524C0.0450786 8.43584 0.158825 8.70382 0.338964 8.92531L4.17996 13.6313C4.31698 13.8014 4.49264 13.9363 4.69231 14.0249C4.89199 14.1134 5.10991 14.153 5.32796 14.1403C5.56118 14.1261 5.78767 14.0565 5.98869 13.9374C6.1897 13.8183 6.35947 13.653 6.48396 13.4553L14.465 0.605314V0.599314C14.503 0.518375 14.5139 0.427284 14.4958 0.339674C14.4778 0.252065 14.4319 0.172648 14.365 0.113314C14.3241 0.0753575 14.2761 0.0458405 14.2238 0.0264494C14.1715 0.00705841 14.1159 -0.00182543 14.0602 0.000311137C14.0045 0.0024477 13.9497 0.0155628 13.899 0.0389006C13.8484 0.0622384 13.8028 0.0953427 13.765 0.136317L13.748 0.156317L13.739 0.166315L5.69196 9.25831C5.63063 9.32743 5.5444 9.3694 5.45216 9.37502C5.35993 9.38065 5.26924 9.34947 5.19996 9.28832L2.52896 6.85832C2.25226 6.60258 1.88974 6.45986 1.51296 6.45832L1.50796 6.45931Z" fill="var(--fill-0, #00BA00)"/>
</svg>
