<svg preserveAspectRatio="none" width="100%" height="100%" overflow="visible" style="display: block;" viewBox="0 0 30 30" fill="none" xmlns="http://www.w3.org/2000/svg">
<g id="&#229;&#155;&#190;&#229;&#177;&#130;_1">
<path id="Path 197624" fill-rule="evenodd" clip-rule="evenodd" d="M15 0C17.9667 0 20.8668 0.879735 23.3335 2.52796C25.8003 4.17618 27.7229 6.51886 28.8582 9.25975C29.9935 12.0006 30.2906 15.0166 29.7118 17.9264C29.133 20.8361 27.7044 23.5088 25.6066 25.6066C23.5088 27.7044 20.8361 29.133 17.9264 29.7118C15.0166 30.2906 12.0006 29.9935 9.25975 28.8582C6.51886 27.7229 4.17618 25.8003 2.52796 23.3335C0.879735 20.8668 0 17.9667 0 15C0.000278866 11.0218 1.58072 7.20669 4.39371 4.39371C7.20669 1.58072 11.0218 0.000278866 15 0Z" fill="var(--fill-0, #4BCC7B)"/>
<g id="Group">
<g id="Group_2">
<path id="Vector" d="M15.0018 26.2518C11.9963 26.2518 9.17075 25.0814 7.04553 22.9563C4.92037 20.8311 3.75 18.0055 3.75 15C3.75 11.9946 4.92037 9.16904 7.04553 7.04382C9.17075 4.91871 11.9963 3.74829 15.0018 3.74829C18.0072 3.74829 20.8328 4.91871 22.958 7.04382C25.0831 9.16904 26.2535 11.9946 26.2535 15C26.2535 18.0055 25.0831 20.8311 22.958 22.9563C20.8328 25.0814 18.0072 26.2518 15.0018 26.2518ZM15.0018 5.27174C9.63753 5.27174 5.27345 9.63582 5.27345 15C5.27345 20.3643 9.63753 24.7284 15.0018 24.7284C20.366 24.7284 24.7301 20.3643 24.7301 15C24.7301 9.63582 20.366 5.27174 15.0018 5.27174Z" fill="var(--fill-0, white)"/>
</g>
<path id="Vector_2" d="M15 3.74913V5.27258C20.3642 5.27258 24.7283 9.63666 24.7283 15.0009C24.7283 20.3651 20.3642 24.7292 15 24.7292V26.2527C18.0055 26.2527 20.831 25.0822 22.9562 22.9571C25.0814 20.8319 26.2518 18.0064 26.2518 15.0009C26.2518 11.9954 25.0814 9.16988 22.9562 7.04466C20.831 4.91955 18.0055 3.74913 15 3.74913Z" fill="var(--fill-0, white)"/>
<path id="Vector_3" d="M14.9981 21.88C18.7983 21.88 21.879 18.7993 21.879 14.9991C21.879 11.1989 18.7983 8.11816 14.9981 8.11816C11.1979 8.11816 8.11719 11.1989 8.11719 14.9991C8.11719 18.7993 11.1979 21.88 14.9981 21.88Z" fill="var(--fill-0, #4BCC7B)"/>
<g id="Group_3">
<path id="Vector_4" d="M15 7.02013C14.5793 7.02013 14.2383 6.67908 14.2383 6.2584V2.76173C14.2383 2.34105 14.5793 2 15 2C15.4207 2 15.7617 2.34105 15.7617 2.76173V6.2584C15.7617 6.67913 15.4207 7.02013 15 7.02013Z" fill="var(--fill-0, white)"/>
</g>
<g id="Group_4">
<path id="Vector_5" d="M15 28C14.5793 28 14.2383 27.659 14.2383 27.2383V23.7416C14.2383 23.321 14.5793 22.9799 15 22.9799C15.4207 22.9799 15.7617 23.321 15.7617 23.7416V27.2383C15.7617 27.659 15.4207 28 15 28Z" fill="var(--fill-0, white)"/>
</g>
<g id="Group_5">
<path id="Vector_6" d="M6.2584 15.7617H2.76173C2.34105 15.7617 2 15.4207 2 15C2 14.5793 2.34105 14.2383 2.76173 14.2383H6.2584C6.67908 14.2383 7.02013 14.5793 7.02013 15C7.02013 15.4207 6.67908 15.7617 6.2584 15.7617Z" fill="var(--fill-0, white)"/>
</g>
<g id="Group_6">
<path id="Vector_7" d="M27.2389 15.7617H23.7422C23.3215 15.7617 22.9805 15.4207 22.9805 15C22.9805 14.5793 23.3215 14.2383 23.7422 14.2383H27.2389C27.6595 14.2383 28.0006 14.5793 28.0006 15C28.0006 15.4207 27.6595 15.7617 27.2389 15.7617Z" fill="var(--fill-0, white)"/>
</g>
<path id="Vector_8" d="M15 22.9802V28.0003C15.4207 28.0003 15.7617 27.6593 15.7617 27.2386V23.7419C15.7617 23.3212 15.4207 22.9802 15 22.9802Z" fill="var(--fill-0, white)"/>
<path id="Vector_9" d="M15 2V7.02013C15.4207 7.02013 15.7617 6.67908 15.7617 6.2584V2.76173C15.7617 2.34105 15.4207 2 15 2Z" fill="var(--fill-0, white)"/>
<path id="Vector_10" d="M15 8.1182V21.8801C18.7942 21.8801 21.8809 18.7933 21.8809 14.9991C21.8809 11.205 18.7942 8.1182 15 8.1182Z" fill="var(--fill-0, #4BCC7B)"/>
<g id="Group_7">
<path id="Vector_11" d="M13.8567 19C13.4772 19 13.1127 18.8479 12.8439 18.5765L10.4195 16.1294C9.86016 15.5648 9.86016 14.6494 10.4195 14.0847C10.9789 13.5202 11.8859 13.5202 12.4452 14.0847L13.8198 15.4723L17.5192 11.4607C18.0582 10.8763 18.9645 10.8435 19.5436 11.3875C20.1225 11.9316 20.1551 12.8464 19.6161 13.4308L14.9053 18.5392C14.6404 18.8264 14.2712 18.9927 13.8825 18.9997C13.8739 18.9999 13.8653 19 13.8567 19Z" fill="var(--fill-0, white)"/>
</g>
<path id="Vector_12" d="M16.3397 13.1344L15 14.5737V16.8096L17.4548 14.1724C17.7415 13.8645 17.7242 13.3824 17.4163 13.0958C17.1084 12.8092 16.6263 12.8264 16.3397 13.1344Z" fill="var(--fill-0, white)"/>
</g>
</g>
</svg>
