<svg preserveAspectRatio="none" width="100%" height="100%" overflow="visible" style="display: block;" viewBox="0 0 18.0832 29.9877" fill="none" xmlns="http://www.w3.org/2000/svg">
<g id="Group 17559">
<path id="Path 174510" fill-rule="evenodd" clip-rule="evenodd" d="M3.23438 6.01913C3.23438 6.01913 5.31132 6.5782 5.31132 10.3109V14.8515C5.29636 15.3363 5.38438 15.8187 5.56957 16.267C5.75476 16.7152 6.03292 17.1191 6.38568 17.452C6.73843 17.7848 7.15776 18.0391 7.616 18.198C8.07424 18.3568 8.56097 18.4167 9.04406 18.3737C9.04406 18.3737 12.7405 18.5926 12.7405 14.8515V13.8331C12.7405 13.8331 8.8577 5.00161 3.23438 6.01913Z" fill="var(--fill-0, #E02D15)"/>
<path id="Path 174511" fill-rule="evenodd" clip-rule="evenodd" d="M12.7198 13.0509C11.774 11.1135 10.5026 9.35295 8.96094 7.84591C8.96094 7.84591 10.572 4.662 14.8591 5.47731C14.8591 5.47265 12.2539 5.50806 12.7198 13.0509Z" fill="var(--fill-0, #FFCC28)"/>
<path id="Path 174512" fill-rule="evenodd" clip-rule="evenodd" d="M8.66656 7.58597C8.11681 7.06588 7.48561 6.63931 6.79801 6.32319C6.79801 6.32319 7.00211 4.45185 5.67969 3.73891C6.55804 3.56376 7.47009 3.73487 8.22524 4.21647C8.98038 4.69807 9.52016 5.4529 9.73176 6.32319C9.30317 6.67615 8.94225 7.10402 8.66656 7.58597Z" fill="var(--fill-0, #8B4083)"/>
<path id="Path 174513" fill-rule="evenodd" clip-rule="evenodd" d="M8.89062 4.24095C9.3901 4.75744 9.76551 5.3808 9.98845 6.06383C10.307 5.82458 10.6546 5.62667 11.0229 5.47484C11.0229 5.47484 10.8691 3.4311 12.0862 2.94928C11.4854 2.80491 10.8545 2.85179 10.2816 3.08335C9.70868 3.31492 9.22239 3.71963 8.89062 4.24095Z" fill="var(--fill-0, #BDB400)"/>
<path id="Path 174514" d="M0.742188 24.3066C1.31131 23.5166 2.15449 22.9671 3.10706 22.7655C3.27631 22.7392 3.44732 22.7258 3.6186 22.7254C4.45099 22.758 5.26094 23.0045 5.97043 23.441C6.92458 23.9768 7.73244 24.5228 8.44432 25.0055C10.0125 26.0659 11.2546 26.9045 12.9933 26.9622C13.0296 26.9622 13.0651 26.9622 13.1023 26.9622C13.6132 26.9648 14.1162 26.8365 14.5634 26.5895C14.9916 26.3458 15.3488 25.9944 15.5995 25.5701C15.8162 25.226 15.9343 24.829 15.9411 24.4224C15.9478 24.0158 15.8429 23.6151 15.6377 23.264C15.3472 22.8101 14.9153 22.4646 14.4087 22.2809C13.8575 22.0824 13.2743 21.9876 12.6886 22.0014C12.56 22.0014 12.4287 22.0014 12.2954 22.0107C12.1482 22.0191 12.0038 22.0238 11.8659 22.0238C11.4728 22.0704 11.0743 22.0325 10.6971 21.9124C10.3199 21.7924 9.97273 21.593 9.67895 21.3277C9.45833 21.0286 9.36275 20.6553 9.41245 20.2869C10.6992 20.2161 14.5569 19.6132 14.5569 14.8826V10.0429C14.5569 10.0429 14.4217 7.4469 15.538 6.99219C15.538 6.99219 13.3129 6.96703 13.3129 10.5647V14.9366C13.264 16.0453 12.7891 17.0924 11.9872 17.8596C11.1853 18.6269 10.1183 19.0551 9.00852 19.0551C7.89871 19.0551 6.83172 18.6269 6.02985 17.8596C5.22798 17.0924 4.75309 16.0453 4.70414 14.9366V10.5647C4.70414 6.96797 2.48276 6.99219 2.48276 6.99219C3.59438 7.4469 3.46486 10.0429 3.46486 10.0429V14.8835C3.46486 19.5061 7.15101 20.1881 8.51514 20.2823C8.46176 20.8551 8.62833 21.4267 8.98104 21.8812C9.35189 22.2606 9.80409 22.5509 10.3035 22.7301C10.8029 22.9092 11.3365 22.9726 11.864 22.9155C12.0168 22.9155 12.1789 22.9155 12.3411 22.9024C12.4594 22.8968 12.574 22.895 12.6877 22.895C13.0934 22.8409 13.5062 22.8893 13.8884 23.0357C14.2705 23.1822 14.6099 23.4222 14.8755 23.7336C14.9948 23.9478 15.0533 24.1905 15.0447 24.4354C15.0362 24.6804 14.9609 24.9185 14.8271 25.1238C14.6485 25.4198 14.3948 25.6634 14.0917 25.8298C13.7887 25.9962 13.447 26.0796 13.1014 26.0714H13.0241C11.5379 26.0211 10.4505 25.2869 8.94283 24.2647C8.21697 23.7727 7.38955 23.2164 6.40465 22.662C5.56436 22.1481 4.60496 21.8614 3.62048 21.83C3.40196 21.8304 3.18383 21.8485 2.96822 21.884C2.13259 22.0341 1.35913 22.4254 0.743119 23.0096L0.742188 24.3066Z" fill="var(--fill-0, #161615)"/>
<g id="Group 17558">
<path id="Path 174515" d="M17.3033 28.6627C17.3033 28.8072 17.2458 28.9459 17.1436 29.0481C17.0414 29.1503 16.9027 29.2078 16.7582 29.2078V29.9867C17.1094 29.9865 17.4461 29.8469 17.6945 29.5987C17.9429 29.3505 18.0827 29.0138 18.0832 28.6627H17.3033ZM16.7582 29.2078H1.31942V29.9867H16.7554V29.2078H16.7582ZM1.31942 29.2078C1.24803 29.2082 1.17729 29.1943 1.11136 29.1669C1.04543 29.1395 0.985637 29.0993 0.935519 29.0484C0.884868 28.998 0.844709 28.938 0.817361 28.872C0.790014 28.8059 0.776021 28.7351 0.776186 28.6636H8.21968e-06C-0.000481944 28.8372 0.0332804 29.0092 0.099356 29.1698C0.165432 29.3304 0.262524 29.4763 0.385079 29.5993C0.507634 29.7223 0.653245 29.8199 0.813572 29.8865C0.973899 29.9532 1.14579 29.9866 1.31942 29.9867V29.2078ZM0.776186 28.6636V1.32686H8.21968e-06V28.6636H0.776186ZM0.776186 1.32593C0.775941 1.25439 0.789806 1.18351 0.816984 1.11733C0.844163 1.05116 0.884125 0.990991 0.934581 0.940276C0.985037 0.88956 1.045 0.849291 1.11103 0.821773C1.17707 0.794255 1.24788 0.780027 1.31942 0.779905V0C1.14567 0.00024398 0.973674 0.0347541 0.813281 0.101555C0.652887 0.168356 0.507244 0.266137 0.384688 0.389297C0.262133 0.512458 0.165074 0.658582 0.0990645 0.819303C0.0330553 0.980023 -0.000604603 1.15218 8.21968e-06 1.32593H0.776186ZM1.31942 0.779905H16.7554V0H1.31942V0.779905ZM16.7582 0.779905C16.8299 0.779782 16.9009 0.793828 16.9671 0.821236C17.0334 0.848645 17.0936 0.888875 17.1442 0.939615C17.1949 0.990355 17.235 1.0506 17.2623 1.1169C17.2896 1.1832 17.3035 1.25424 17.3033 1.32593H18.0832C18.0832 0.974434 17.9436 0.63732 17.6952 0.388686C17.4467 0.140052 17.1097 0.000247012 16.7582 0V0.779905ZM17.3033 1.32593V28.6627H18.0832V1.32686L17.3033 1.32593Z" fill="var(--fill-0, white)"/>
</g>
</g>
</svg>
