<svg preserveAspectRatio="none" width="100%" height="100%" overflow="visible" style="display: block;" viewBox="0 0 18.0813 29.9877" fill="none" xmlns="http://www.w3.org/2000/svg">
<g id="Group 17561">
<path id="Path 174516" d="M17.3051 28.6627C17.3049 28.8068 17.2476 28.9451 17.1459 29.0472C17.0441 29.1493 16.9061 29.207 16.7619 29.2078V29.9867C16.9355 29.9866 17.1074 29.9523 17.2678 29.8856C17.4281 29.819 17.5737 29.7214 17.6962 29.5984C17.8188 29.4754 17.9159 29.3294 17.982 29.1689C18.048 29.0083 18.0818 28.8363 18.0813 28.6627H17.3051ZM16.7619 29.2078H1.32035V29.9867H16.7619V29.2078ZM1.32035 29.2078C1.24898 29.2081 1.1792 29.1941 1.11328 29.1668C1.04736 29.1394 0.987564 29.0992 0.937382 29.0484C0.836687 28.9455 0.77961 28.8076 0.778048 28.6636H5.25458e-06C-0.000362335 28.8373 0.0335422 29.0095 0.0997778 29.1701C0.166013 29.3307 0.26328 29.4767 0.386008 29.5997C0.508736 29.7227 0.654517 29.8203 0.815003 29.8868C0.97549 29.9534 1.14753 29.9877 1.32128 29.9877L1.32035 29.2078ZM0.778048 28.6636V1.32686H5.25458e-06V28.6636H0.778048ZM0.778048 1.32686C0.778541 1.18209 0.835741 1.04234 0.937382 0.939242C0.987657 0.888618 1.04747 0.848469 1.11337 0.821119C1.17927 0.793769 1.24993 0.77976 1.32128 0.779905V0C1.14741 0.000121839 0.97527 0.034536 0.814717 0.101271C0.654164 0.168006 0.50835 0.265751 0.385622 0.388912C0.262894 0.512073 0.165661 0.65823 0.0994916 0.819017C0.0333224 0.979803 -0.000484908 1.153 5.25458e-06 1.32686H0.778048ZM1.32128 0.779905H16.7619V0H1.32128V0.779905ZM16.7619 0.779905C16.9056 0.780373 17.0433 0.837652 17.1449 0.939242C17.196 0.989769 17.2365 1.05 17.264 1.11641C17.2916 1.18281 17.3055 1.25405 17.3051 1.32593H18.0813C18.0819 1.15218 18.0483 0.980023 17.9823 0.819303C17.9162 0.658582 17.8192 0.512458 17.6966 0.389298C17.5741 0.266137 17.4284 0.168356 17.268 0.101555C17.1076 0.0347541 16.9357 0.00024398 16.7619 0V0.779905ZM17.3051 1.32593V28.6627H18.0813V1.32593H17.3051Z" fill="var(--fill-0, white)"/>
</g>
</svg>
