<svg preserveAspectRatio="none" width="100%" height="100%" overflow="visible" style="display: block;" viewBox="0 0 9.5227 25.4491" fill="none" xmlns="http://www.w3.org/2000/svg">
<g id="Group 17562">
<path id="Path 174517" fill-rule="evenodd" clip-rule="evenodd" d="M0.569305 15.0047C0.575469 14.9393 0.605465 14.8785 0.653579 14.8338C0.701692 14.7891 0.76456 14.7637 0.830204 14.7624C0.830204 14.7624 3.12333 14.5295 3.12333 17.3798V21.1069C3.08721 21.3701 3.11203 21.638 3.19588 21.8901C3.27972 22.1421 3.42035 22.3716 3.60692 22.5606C3.79348 22.7497 4.02098 22.8934 4.27188 22.9806C4.52278 23.0679 4.79037 23.0963 5.05399 23.0637C5.31468 23.0735 5.57452 23.0285 5.81671 22.9315C6.05889 22.8346 6.27803 22.6879 6.45993 22.5009C6.64183 22.3139 6.78244 22.0908 6.87267 21.846C6.9629 21.6012 7.00073 21.3402 6.98372 21.0799C6.98372 20.3233 6.9744 20.3233 6.9744 20.3233C6.9744 20.3233 6.98372 20.1453 6.72375 20.1453H6.11809C6.11809 20.1453 5.74538 20.2124 5.74538 19.6701V17.3407C5.74538 17.3407 5.71742 14.7587 7.82885 14.7587C9.15012 14.7587 9.16969 14.768 9.16969 14.768C9.2135 14.7629 9.2579 14.7674 9.29976 14.7813C9.34163 14.7952 9.37994 14.8181 9.412 14.8484C9.44407 14.8787 9.4691 14.9156 9.48536 14.9566C9.50161 14.9976 9.50868 15.0417 9.50606 15.0857C9.51445 22.9127 9.5219 21.6371 9.51445 21.8691C9.51445 21.8691 9.60763 25.4407 5.04188 25.4491C4.01691 25.4491 0.563714 25.3754 0.563714 21.434C0.559055 13.9676 0.569305 15.0047 0.569305 15.0047Z" fill="var(--fill-0, #161615)"/>
<path id="Path 174518" fill-rule="evenodd" clip-rule="evenodd" d="M0.559447 8.64844C0.559447 8.64844 0.00689614 10.7235 2.60099 12.3933C2.91739 12.5567 3.19772 12.7821 3.42532 13.056C3.65292 13.3299 3.82314 13.6467 3.92588 13.9877C4.02862 14.3287 4.06177 14.6868 4.02337 15.0409C3.98498 15.3949 3.87581 15.7377 3.70236 16.0487C3.54312 15.3668 3.12841 14.772 2.54369 14.3868C1.95897 14.0017 1.24878 13.8554 0.559447 13.9783C0.190506 13.1383 0 12.2308 0 11.3133C0 10.3959 0.190506 9.48844 0.559447 8.64844Z" fill="var(--fill-0, #E02D15)"/>
<path id="Path 174519" fill-rule="evenodd" clip-rule="evenodd" d="M5.11282 15.9525C5.11282 15.9525 8.10479 13.1395 4.51462 10.2761C4.51462 10.2761 1.2692 7.68478 2.8374 4.23438C2.10819 4.9223 1.58356 5.79858 1.32158 6.76624C1.05961 7.73389 1.0705 8.75516 1.35307 9.71701C1.82989 10.7477 2.6337 11.5921 3.63967 12.1191C4.2448 12.5335 4.70972 13.122 4.97281 13.8066C5.23589 14.4912 5.28472 15.2395 5.11282 15.9525Z" fill="var(--fill-0, #FFCC28)"/>
<path id="Path 174520" fill-rule="evenodd" clip-rule="evenodd" d="M6.76398 9.29364C6.76398 9.29364 2.07337 7.85775 3.66579 3.85946C3.88998 3.35582 4.22132 2.90714 4.63671 2.54471C5.00634 2.23468 5.30012 1.84418 5.49554 1.4031C5.69097 0.962022 5.78285 0.48207 5.76417 0C5.96766 0.617562 6.03962 1.27088 5.97543 1.91793C5.91124 2.56497 5.71231 3.19142 5.39146 3.75696C5.39146 3.75696 3.75804 7.27818 6.76398 9.29364Z" fill="var(--fill-0, #BDB400)"/>
<path id="Path 174521" fill-rule="evenodd" clip-rule="evenodd" d="M4.27344 8.67188C4.57544 9.26727 4.99783 9.79345 5.51385 10.217C6.11311 10.6823 6.55515 11.3202 6.78031 12.0447C7.00546 12.7691 7.00288 13.5452 6.77291 14.2682C6.77291 14.2682 7.05248 13.8702 9.4979 13.9979C9.4979 13.9979 9.96387 10.3391 6.85584 9.84333C5.892 9.73875 4.98699 9.32821 4.27344 8.67188Z" fill="var(--fill-0, #8B4083)"/>
</g>
</svg>
