<svg preserveAspectRatio="none" width="100%" height="100%" overflow="visible" style="display: block;" viewBox="0 0 102.062 21.995" fill="none" xmlns="http://www.w3.org/2000/svg">
<g id="Group 17567">
<path id="Path 174532" d="M102.042 7.38247H67.2679V7.33686C67.2679 5.06368 66.5282 3.4722 65.0859 2.60311C61.6441 0.543185 55.6184 3.67067 54.9453 4.03433L55.8144 5.66032C57.3948 4.81096 61.9708 2.88911 64.1342 4.18842C64.6112 4.54957 64.9824 5.03213 65.2092 5.58573C65.4361 6.13932 65.5101 6.74365 65.4237 7.33563V7.38124H56.146V9.23037H61.1559V13.4994L61.4259 13.7656L62.9052 15.2449L63.3897 15.3473L63.9037 15.4483L66.9967 14.1946C67.0914 15.2499 66.8405 16.3073 66.2817 17.2075C65.9397 17.6384 65.5053 17.9869 65.0104 18.2271C64.5156 18.4674 63.973 18.5933 63.4229 18.5956C62.9742 18.635 58.9974 18.7965 57.539 12.5477L55.7429 12.9681C57.3615 19.901 61.8524 20.4484 63.2331 20.4484C63.3983 20.4484 63.5166 20.4422 63.5832 20.4348C64.3975 20.4125 65.1966 20.2082 65.9218 19.8371C66.6471 19.466 67.2801 18.9373 67.7745 18.2898C68.7835 16.6026 69.1011 14.5906 68.6609 12.6747L67.417 12.0336L63.7767 13.5068L63.005 12.7314V9.22913H72.0522C71.5333 10.3819 71.1665 11.5974 70.9612 12.8448C70.6098 14.5777 70.7971 16.3767 71.4978 18.0001C72.1986 19.6235 73.3792 20.9936 74.8813 21.9264L75.9057 20.3892C74.7057 19.6555 73.761 18.5697 73.2004 17.2796C72.6399 15.9895 72.4908 14.558 72.7733 13.1801C73.0041 11.8008 73.4531 10.4671 74.1035 9.22913H81.5246V11.7772C81.0698 11.3915 80.5425 11.1004 79.9737 10.9211C79.4049 10.7418 78.806 10.6779 78.2122 10.7331C77.8011 10.7541 77.3982 10.8567 77.0272 11.035C76.6561 11.2132 76.3242 11.4636 76.0509 11.7715C75.7776 12.0793 75.5683 12.4385 75.4352 12.8281C75.3021 13.2177 75.248 13.6298 75.2758 14.0406C75.2635 14.3957 75.3221 14.7498 75.4481 15.0821C75.5742 15.4144 75.7651 15.7183 76.0099 15.9759C76.2547 16.2336 76.5484 16.4399 76.8739 16.5828C77.1993 16.7256 77.5499 16.8022 77.9053 16.8081V14.9651C77.189 14.9651 77.1249 14.1478 77.12 13.9863C77.1047 13.8139 77.1242 13.6401 77.1773 13.4753C77.2304 13.3105 77.316 13.158 77.4292 13.027C77.5423 12.8959 77.6806 12.7889 77.8359 12.7123C77.9911 12.6357 78.1602 12.591 78.333 12.581C79.1076 12.5606 79.8623 12.8277 80.4516 13.3307C81.0409 13.8338 81.4232 14.5372 81.5246 15.3054V15.4841C80.9003 15.5724 80.3116 15.8286 79.8214 16.2252C79.3311 16.6219 78.9578 17.1441 78.7411 17.7363C78.5668 18.2569 78.5385 18.8153 78.6593 19.3509C78.7802 19.8864 79.0455 20.3785 79.4265 20.7738C79.6574 21.0083 79.9331 21.1939 80.2372 21.3197C80.5413 21.4455 80.8676 21.5089 81.1967 21.5061C81.5077 21.506 81.8165 21.4556 82.1114 21.3569L81.5345 19.6027C81.4013 19.6626 81.2533 19.6814 81.1094 19.6566C80.9656 19.6318 80.8324 19.5645 80.727 19.4634C80.5893 19.309 80.4952 19.1208 80.4543 18.918C80.4133 18.7153 80.4271 18.5053 80.494 18.3096C80.6312 18.006 80.851 17.7471 81.1282 17.5625C81.4055 17.3779 81.7291 17.2749 82.0621 17.2654C84.9233 16.8229 86.0217 20.5704 86.0673 20.7319H86.0858V20.9168H87.9349V9.22913H89.1775C89.2552 9.25379 89.3378 9.27968 89.4241 9.30433C91.8218 10.0107 93.9852 10.9069 93.7387 12.6685L89.8839 15.5593L90.4608 17.2186C90.5224 17.2186 96.7034 17.1089 98.3504 20.3756L100.097 19.959V9.23406H102.062L102.042 7.38247ZM86.0808 17.0435C85.3734 16.2324 84.4217 15.673 83.3688 15.4496V9.22913H86.0808V17.0435ZM92.9608 15.5507L95.1083 13.9395L95.1403 13.8951C96.3072 13.9356 97.4134 14.4249 98.2284 15.261V17.4935C96.6573 16.4256 94.849 15.7594 92.9608 15.5507ZM98.2296 13.1431C97.4245 12.6726 96.5287 12.3784 95.6014 12.2802C95.574 11.6652 95.3975 11.066 95.0872 10.5343C94.7769 10.0026 94.342 9.55428 93.8201 9.2279H98.2296V13.1431Z" fill="var(--fill-0, white)"/>
<g id="Group 17566">
<path id="Path 174533" d="M15.1308 8.82895C14.9355 8.82211 14.7412 8.79819 14.5501 8.75745C14.3583 8.71597 14.1632 8.69122 13.9671 8.68348C13.788 8.71734 13.6169 8.78467 13.4629 8.88196C13.2764 8.99769 13.0652 9.06781 12.8465 9.08659C12.4234 9.05868 12.0074 8.96425 11.6137 8.80676C10.6849 10.0213 9.99658 11.402 9.58586 12.8748L9.67214 12.9365C9.73132 12.9365 9.84227 12.9513 10.0099 12.9685C10.1349 12.9869 10.2609 12.9976 10.3871 13.0006C10.8149 12.9784 11.2386 12.906 11.6495 12.7848C12.0529 12.6609 12.4696 12.5852 12.8909 12.5592C13.5072 12.5592 14.0521 13.0622 14.528 14.0681C14.9088 14.7737 15.1223 15.5574 15.1517 16.3586C15.0515 16.856 14.8614 17.331 14.5908 17.7602C13.8483 18.5632 12.8338 19.0615 11.7444 19.1581C10.3813 19.1595 9.02456 18.9737 7.71208 18.6059C6.98229 18.3951 5.71009 17.9402 3.89918 17.2499C2.92284 16.864 2.29662 16.6125 2.00076 16.4831C1.36614 16.2155 0.754317 15.8969 0.171345 15.5302C0.0593269 15.3687 -0.000471013 15.1768 2.794e-06 14.9804C2.794e-06 14.6241 0.208333 14.4466 0.62377 14.4466C0.737144 14.4464 0.848561 14.4762 0.946761 14.5329C1.75134 14.8854 2.5555 15.2462 3.35925 15.6152C4.17636 15.9695 5.01169 16.2802 5.86173 16.546C7.40109 17.0633 9.00344 17.3698 10.6251 17.457C11.1989 17.4803 11.7651 17.3196 12.2412 16.9984C12.451 16.8544 12.6207 16.6593 12.7342 16.4315C12.8476 16.2038 12.9011 15.9508 12.8896 15.6966C12.8835 15.4377 12.8082 15.1852 12.6713 14.9654C12.5345 14.7455 12.3413 14.5664 12.1118 14.4466C11.2874 14.8829 10.3706 15.1154 9.43794 15.1246C9.29617 15.1246 8.9214 15.0839 8.31735 15.0013C7.55305 14.8879 7.17461 14.5427 7.17461 13.9621C7.17461 12.9463 7.94877 11.0701 9.50327 8.34694C9.43976 8.31655 9.37474 8.28939 9.30849 8.26558C8.7239 8.3662 8.13342 8.42879 7.54073 8.45296C6.69014 8.49734 6.09101 8.54418 5.73228 8.60089C5.23779 8.40099 4.71103 8.2928 4.17778 8.28161C3.89609 8.38743 3.63403 8.53951 3.40238 8.73156C3.21624 8.75868 3.1164 8.77101 3.10161 8.77101C2.84273 8.77101 2.69233 8.38762 2.64918 7.62578C2.9291 7.58622 3.19895 7.49377 3.44431 7.35335C3.76559 7.16532 4.12979 7.06301 4.50199 7.05626C5.02846 7.15512 5.56099 7.21854 6.09596 7.2461C6.37086 7.25843 6.77273 7.28062 7.30405 7.31267C7.20208 6.89623 7.15811 6.4677 7.17337 6.03924C7.17389 5.16458 7.26061 4.29209 7.43226 3.43444C7.54405 2.54442 7.89414 1.70111 8.44556 0.993595C8.70923 0.762889 8.98985 0.552318 9.28507 0.363661C9.71776 0.304489 10.3945 0.182447 11.3129 0L11.8307 0.505427C11.5465 1.12284 11.1431 1.67795 10.6436 2.13882C10.4266 1.7579 10.2737 1.56559 10.1714 1.56559C9.76831 1.56559 9.5008 2.01801 9.37259 2.92162C9.33068 3.51087 9.28507 4.10506 9.24316 4.70047C9.22167 5.23328 9.17147 5.76455 9.09277 6.29195C9.09277 6.5385 9.09277 6.71109 9.09277 6.79861C9.09277 6.88614 9.21603 6.96257 9.41696 7.03283C9.5746 7.09377 9.74121 7.12834 9.91007 7.13515C9.88172 7.13515 10.132 7.11543 10.6633 7.07475C11.2861 7.4061 11.9551 7.64213 12.648 7.77495C12.8672 7.76632 13.0845 7.73114 13.2952 7.67017C13.5058 7.59735 13.7212 7.53927 13.9399 7.49635C13.956 7.49635 14.2 7.48895 14.6734 7.46799C15.7674 7.25651 16.8311 6.91078 17.8403 6.43865C17.963 6.52915 18.0664 6.64328 18.1443 6.77433C18.2222 6.90538 18.2731 7.0507 18.294 7.20172C18.294 7.57154 17.8564 7.94877 16.9799 8.34694C16.3988 8.62095 15.7717 8.7844 15.1308 8.82895Z" fill="var(--fill-0, white)"/>
<path id="Path 174534" d="M17.7658 8.52573C17.7815 8.40642 17.7881 8.28609 17.7855 8.16577C17.7623 8.05002 17.7022 7.94492 17.6142 7.86621C17.5008 7.74294 17.4194 7.68007 17.3775 7.68007C16.8817 7.84209 16.4158 8.08402 15.9981 8.3963C15.7443 8.13792 15.5783 7.80628 15.5234 7.44832C15.603 7.09107 15.749 6.75195 15.9537 6.44856C17.4715 6.12659 19.0165 5.94951 20.5679 5.9197C21.1694 5.9197 21.9453 5.94231 22.8953 5.98751C24.1724 6.04175 24.9491 6.07873 25.2227 6.09475C25.8345 6.08564 26.4463 6.10745 27.0558 6.16009L27.4663 6.18104C27.8894 6.128 28.2944 5.9778 28.6498 5.74219L28.9296 5.86547C29.0605 5.87832 29.187 5.92044 29.2994 5.98874C29.5016 6.08859 29.6594 6.38815 29.7753 6.89235L29.4054 7.10437L29.2106 7.06246L27.809 7.5494C26.688 7.5042 25.5671 7.47009 24.4461 7.44708C23.3327 7.43651 22.2223 7.32927 21.1275 7.12657C21.0514 7.10136 20.9722 7.08725 20.8921 7.08465C20.7277 7.08465 20.5477 7.21163 20.3521 7.46557C20.2045 7.65149 20.0461 7.82849 19.8775 7.99565C19.7481 8.43205 19.5533 9.07554 19.2956 9.92244L19.3388 10.1111L19.4041 10.2183L19.467 10.238H19.5324C19.6989 10.2451 19.8638 10.2021 20.0057 10.1148L21.9239 9.65124C22.2136 9.29867 22.4996 8.94487 22.7868 8.58984C23.0606 8.24497 23.3804 7.93928 23.7372 7.6813L24.4042 7.7639L25.2018 8.52697C25.2946 8.76998 25.3389 9.02878 25.3324 9.28881C25.3103 9.47942 25.2268 9.65767 25.0945 9.7967C24.9934 10.4065 24.7777 11.6729 24.4473 13.596L22.4873 13.3815L22.507 12.7442C22.5211 12.6029 22.5281 12.4609 22.5279 12.3189C22.568 12.1382 22.568 11.951 22.5279 11.7703C22.4996 11.5842 22.4293 11.493 22.3134 11.493C21.5859 11.8674 20.8808 12.284 20.2017 12.7405C20.0792 12.9163 19.9419 13.0812 19.7912 13.2336C19.6458 13.278 19.4214 13.3569 19.1231 13.4654C18.6216 13.4253 18.1557 13.1903 17.8255 12.8107C17.4952 12.4311 17.3269 11.9373 17.3565 11.435C17.3565 11.2205 17.3849 10.8039 17.4416 10.1801C17.4675 9.63151 17.4773 9.18033 17.4625 8.82406L17.7658 8.52573Z" fill="var(--fill-0, white)"/>
<path id="Path 174535" d="M26.7577 16.4772L23.8065 18.0674C23.4478 18.1204 23.2308 18.1513 23.1581 18.1513C22.7779 18.1335 22.4105 18.0091 22.0978 17.7921C21.7852 17.5752 21.54 17.2745 21.3903 16.9247C21.017 16.3095 20.8161 15.6052 20.8084 14.8857C20.9064 14.0885 21.3082 13.3599 21.9302 12.8517L22.0609 12.8751C22.4136 12.4151 22.8614 12.0366 23.3738 11.7656H23.9113C24.3312 11.7955 24.7221 11.9905 24.9986 12.308C25.1647 12.4478 25.2938 12.6262 25.3747 12.8277C25.4555 13.0291 25.4855 13.2473 25.4621 13.4631C25.1884 13.745 24.7569 14.1407 24.1677 14.6503C23.8571 14.8933 23.5683 15.1631 23.3047 15.4565L23.3516 15.6685C23.3753 15.8282 23.4591 15.9728 23.5858 16.0728L23.6733 16.095C23.6789 16.1014 23.6857 16.1066 23.6933 16.1102C23.701 16.1138 23.7093 16.1158 23.7177 16.116C24.417 16.0102 25.0611 15.6744 25.5484 15.1618C26.1692 14.6516 26.7263 14.0684 27.2076 13.4249C27.6245 13.4547 28.0226 13.6103 28.3492 13.8712L28.6315 14.0388C28.6735 14.1966 28.6881 14.3605 28.6746 14.5233C28.6615 15.5539 28.6261 17.0997 28.5686 19.1609C28.5623 19.4743 28.5259 19.7864 28.4601 20.0928C28.2736 20.8802 27.49 21.4012 26.1093 21.656C25.7945 21.6847 25.3129 21.734 24.6645 21.8039C24.2021 21.8995 23.7339 21.9633 23.2628 21.995C21.7577 21.998 20.2736 21.6422 18.9334 20.957C17.6148 20.2242 16.373 19.3611 15.2266 18.3806L15.7431 17.1959C16.7834 17.9178 17.8625 18.5825 18.9753 19.1868C19.9132 19.7838 20.9611 20.187 22.0572 20.3727C22.7872 20.3856 23.5143 20.2786 24.2096 20.0559C24.8568 19.7723 25.5101 19.4962 26.1746 19.2299C26.242 19.1823 26.2939 19.1158 26.3237 19.0388C26.4631 18.6247 26.5606 18.1977 26.6147 17.7642C26.6927 17.3391 26.7405 16.909 26.7577 16.4772Z" fill="var(--fill-0, white)"/>
<path id="Path 174536" d="M30.5488 6.96619C30.613 6.4072 30.7511 5.8592 30.9594 5.3365C31.2306 4.64863 31.5499 4.30469 31.9074 4.30469C32.2649 4.30469 32.5237 4.5648 32.7271 5.08748L32.6408 6.84045C33.1264 6.58975 33.6662 6.46272 34.2126 6.47063C34.7303 6.47063 34.9904 6.66047 34.9904 7.04509C34.9781 7.27574 34.8949 7.49696 34.7521 7.67854C34.6094 7.86013 34.4141 7.99322 34.1929 8.05964C33.7376 8.23794 33.3035 8.46616 32.8985 8.74012C31.9667 9.96052 31.5355 11.4904 31.6928 13.0178C31.7072 13.6414 31.7533 14.2639 31.8309 14.8829C31.9102 15.5018 31.9575 16.1243 31.9727 16.7481C31.9683 17.172 31.9022 17.5931 31.7767 17.9981C31.6475 18.1741 31.4834 18.3215 31.2946 18.4312C31.1058 18.5408 30.8964 18.6104 30.6795 18.6354C30.433 18.6354 30.1864 18.432 29.946 18.019L29.9694 15.4302C29.9694 15.0493 29.9694 14.1605 29.9904 12.765C29.9904 12.5382 30.004 12.1783 30.0323 11.6827C30.0607 11.234 30.0755 10.8789 30.0755 10.6262C30.0822 10.3811 30.1036 10.1366 30.1396 9.89397C30.1767 9.65111 30.1981 9.4061 30.2037 9.16048C30.1922 8.96754 30.1334 8.7804 30.0323 8.61561C29.2105 8.14799 28.4992 7.77816 27.8984 7.50614V6.74676C28.1853 6.27914 28.4433 6.04574 28.6726 6.04656C29.3353 6.27039 29.966 6.57953 30.5488 6.96619Z" fill="var(--fill-0, white)"/>
<path id="Path 174537" d="M49.292 7.35294C49.1775 7.57437 49.0238 7.77319 48.8383 7.93972C48.6191 8.06651 48.3777 8.15019 48.1271 8.18628C47.7387 8.30921 47.3746 8.49857 47.0509 8.74594C46.5898 9.06522 46.3531 9.29698 46.3384 9.43628V12.782C46.3636 13.9553 46.3225 15.1291 46.2151 16.2978C45.9545 17.9916 45.3575 18.838 44.4239 18.8372C43.8879 18.7578 43.3821 18.5394 42.9569 18.2036C42.6809 17.7341 42.4423 17.2436 42.2431 16.7366C42.0705 16.278 41.9005 15.8096 41.7266 15.3288C41.4406 14.5966 41.1596 14.2267 40.8834 14.2267C40.6073 14.2267 40.0489 14.6607 39.2353 15.5236C38.4216 16.3865 37.8546 16.8167 37.5242 16.8167C36.9078 16.8167 36.4603 16.4186 36.1854 15.6308C36.1016 15.3461 36.0129 15.0662 35.9303 14.7913C35.8327 14.4947 35.6946 14.213 35.5197 13.9543C35.2609 13.5734 34.9934 13.1912 34.7222 12.8091C34.4626 12.445 34.3001 12.0207 34.25 11.5763C34.25 11.0524 34.5372 10.7923 35.1129 10.7923C35.2783 10.8047 35.4429 10.8257 35.606 10.8552C36.4183 11.514 37.0615 12.3571 37.4823 13.3145C37.5821 13.582 37.719 13.7176 37.8903 13.7176C37.9779 13.7176 38.1147 13.619 38.2996 13.4218C38.7754 12.8695 39.07 12.5091 39.1835 12.3406C39.4711 11.9693 39.6369 11.518 39.6581 11.0487C39.6524 10.1146 39.2858 9.21877 38.6349 8.5487C38.3431 8.19951 37.9788 7.91797 37.5674 7.72362C37.1559 7.52927 36.707 7.42676 36.252 7.4232C35.4224 7.51423 34.6257 7.79838 33.9258 8.25284L33.7532 8.61158C33.3932 8.27257 33.1328 7.8416 33 7.36526L33.1073 7.00284C33.6157 6.59158 34.1912 6.2709 34.8085 6.05485C35.416 5.97044 36.0299 5.94115 36.6428 5.96733C36.9258 5.94797 37.2031 5.87781 37.4613 5.76023C37.7315 5.62539 38.0118 5.51164 38.2996 5.41999C38.9096 5.29372 39.5321 5.23747 40.1549 5.25233C41.9648 5.23909 43.7712 5.41552 45.5444 5.77872C45.6677 6.00308 45.8107 6.22744 45.955 6.4518C46.1818 6.82162 46.3346 7.00037 46.4061 7.00037C46.6084 6.97725 46.8051 6.91972 46.988 6.83025C47.2103 6.72851 47.4524 6.67755 47.6968 6.68109C47.9771 6.59571 48.2671 6.54601 48.5598 6.53316C49.0603 6.53316 49.3117 6.74026 49.3117 7.14953L49.292 7.35294ZM43.9431 7.69687C43.1793 7.39489 42.3726 7.21557 41.5528 7.16556H40.8206C40.0168 7.16556 39.6149 7.24199 39.6149 7.39978C39.7871 7.87395 40.0338 8.31758 40.3459 8.71389C40.8793 9.4669 41.2181 10.3401 41.3322 11.2558C41.347 11.4034 41.347 11.552 41.3322 11.6996C42.418 12.877 43.3053 14.223 43.9592 15.6851C44.0183 15.2635 44.075 14.7889 44.1342 14.2662C44.3707 12.7142 44.5213 11.1503 44.5854 9.58175C44.6118 9.24024 44.5685 8.89693 44.4581 8.57269C44.3477 8.24845 44.1725 7.95129 43.9431 7.69687Z" fill="var(--fill-0, white)"/>
</g>
<path id="Rectangle 5586" d="M54.3298 12.6641H49.3203V14.5123H54.3298V12.6641Z" fill="var(--fill-0, white)"/>
</g>
</svg>
